Simulation
nRows=20
nColumns=15
endheader
time  TH_x TH_y TH_z SC_y  SC_z  SC_x  AC_y  AC_z  AC_x  GH_y  GH_z  GH_yy  EL_x  PS_y
8.043  0.000000  0.000000  0.000000  -21.656975551324628  3.8669065229866577  -2.435502597599952  56.590643198665326  10.718425470559236  4.429370939758779  7.274428337687778  4.643915846542614  48.61019386146608  17.206110719587237  120.000000
8.09662  0.000000  0.000000  0.000000  -21.182116197202387  3.4617416427002823  -3.848343097991902  56.3948077353969  10.281369128960652  4.698273983053446  9.490800255089532  6.81327172732561  45.895356498717376  16.605122406350887  120.000000
8.15024  0.000000  0.000000  0.000000  -20.652651953003126  3.0552006556352147  -5.283374645611616  56.231334252081965  9.991159802880606  5.105207303643412  11.66066701283834  9.164906960547459  43.0106751163453  15.857346983840536  120.000000
8.20386  0.000000  0.000000  0.000000  -20.127247084555695  2.6803406697145635  -6.696909249170175  56.150495897509295  9.892542446676721  5.637158851016201  13.893283921218908  11.746055118824906  39.816929649699475  15.01914895489175  120.000000
8.257480000000001  0.000000  0.000000  0.000000  -19.686842515463535  2.3699496237556748  -8.043272773449003  56.183540517902436  10.020733135216085  6.275797353072306  16.087923758352066  14.606926139816254  36.38755766940992  14.166608529112269  120.000000
8.3111  0.000000  0.000000  0.000000  -19.407012997329716  2.155861655081145  -9.276872733599243  56.351333462638564  10.396181938241295  6.993938436568532  18.12364336618291  17.779862787904197  32.83115546992122  13.373854399990947  120.000000
8.36472  0.000000  0.000000  0.000000  -19.32176906175034  2.060651964425737  -10.349349320444544  56.67310107575131  11.026990871003363  7.758198802515854  19.931469417906655  21.262266936825455  29.229873193947185  12.690596457990678  120.000000
8.41834  0.000000  0.000000  0.000000  -19.4122867002547  2.077595909433651  -11.20237708636658  57.13528560887494  11.90194893888349  8.549308343612516  21.467370550693456  24.988060492078144  25.672554791067824  12.132598248977638  120.000000
8.47196  0.000000  0.000000  0.000000  -19.61174380020472  2.1864686361735575  -11.781157824766296  57.70347200329217  12.993422134687442  9.347164839507833  22.725593858115793  28.83197861267579  22.230820475109105  11.690428555271835  120.000000
8.52558  0.000000  0.000000  0.000000  -19.826209941425503  2.3807585989693525  -12.045167925995855  58.35550715180281  14.265910478141238  10.108838769748502  23.739830814896557  32.65720200429855  18.93589570574865  11.34035948253697  120.000000
8.5792  0.000000  0.000000  0.000000  -19.984868803314047  2.663151354871751  -11.96289048553554  59.067309322547054  15.66449447830922  10.789919168122681  24.54797076911768  36.34657326995326  15.80506305904622  11.060146740324365  120.000000
8.63282  0.000000  0.000000  0.000000  -20.07111927335114  3.0271700697014894  -11.508998751607852  59.78979692328357  17.103171844802304  11.374630632452048  25.17471110495806  39.8141982459342  12.852771495394808  10.832531288105825  120.000000
8.686440000000001  0.000000  0.000000  0.000000  -20.110700686201454  3.466529196563969  -10.667622532858628  60.47369332624649  18.48007609487888  11.86584852491275  25.63938118147478  43.011814996139144  10.088089111323281  10.646762377069455  120.000000
8.74006  0.000000  0.000000  0.000000  -20.149860532470857  3.9746457772706694  -9.438302321036836  61.0870338329519  19.695948394839  12.280709771476657  25.960369964592385  45.92337157606118  7.517497652313144  10.498106415566008  120.000000
8.79368  0.000000  0.000000  0.000000  -20.23504348377173  4.53888301557951  -7.8393638911461885  61.61205650407473  20.667958739536502  12.647560982511497  26.14746377284682  48.545708621738505  5.1517651021747435  10.384448910586759  120.000000
8.8473  0.000000  0.000000  0.000000  -20.404016247089267  5.146951480226433  -5.916794443721137  62.0437984067687  21.341889416376414  12.99135614810673  26.203089802819264  50.87855281175307  3.0028108730944116  10.305757098408735  120.000000
8.90092  0.000000  0.000000  0.000000  -20.67582571575617  5.781442598571292  -3.741644241515097  62.38297373540868  21.697011305563244  13.3322088962271  26.12797251378028  52.920408295740486  1.0745719100069635  10.261891859636002  120.000000
8.95454  0.000000  0.000000  0.000000  -21.047716105287222  6.42526298499809  -1.4000360733600503  62.64139443930255  21.748597189309066  13.678429165632934  25.930490572162373  54.6725525670677  -0.6413713427741887  10.252807702451047  120.000000
9.00816  0.000000  0.000000  0.000000  -21.50287708026667  7.060228234095459  1.0193843533426952  62.835439568115326  21.53919273026805  14.030183340720479  25.626803225768583  56.14395409459654  -2.1577184636078877  10.274931209973214  120.000000
9.06178  0.000000  0.000000  0.000000  -22.021213058917123  7.6696858769931735  3.438040955714045  62.97983211844513  21.128969656228815  14.379685279876938  25.24243892134643  57.352102015044984  -3.481757794883028  10.318216961993874  120.000000
